<svg width="500" height="500" viewBox="0 0 500 500" fill="none" xmlns="http://www.w3.org/2000/svg">
<path fill-rule="evenodd" clip-rule="evenodd" d="M264.512 263.286C265.16 257.669 265.484 252.268 265.484 247.084C265.484 228.937 261.595 213.059 253.817 199.449C251.983 196.149 249.971 193.033 247.782 190.101C254.945 181.083 263.703 173.83 274.054 168.341C288.313 160.78 304.301 157 322.017 157C339.734 157 355.721 160.78 369.981 168.341C384.24 175.902 395.475 186.812 403.685 201.07C411.895 215.112 416 231.422 416 250C416 268.578 411.787 284.997 403.361 299.254C395.151 313.296 383.808 324.098 369.333 331.659C355.073 339.22 339.085 343 321.369 343C303.653 343 287.665 339.22 273.406 331.659C263.044 326.08 254.27 318.737 247.084 309.63C253.822 300.867 258.551 291.144 261.271 280.46H232.114C230.528 275.01 229.404 269.285 228.743 263.286H264.512ZM228.743 263.286C228.271 258.998 228.035 254.569 228.035 250C228.035 231.422 232.14 215.112 240.35 201.07C242.6 197.162 245.077 193.506 247.782 190.101C240.943 180.942 232.368 173.581 222.057 168.017C208.446 160.672 192.89 157 175.39 157C157.458 157 141.578 160.78 127.751 168.341C113.923 175.902 103.121 186.704 95.3427 200.746C87.7809 214.787 84 231.206 84 250C84 268.794 87.8889 285.213 95.6668 299.254C103.445 313.296 114.247 324.098 128.075 331.659C141.902 339.22 157.674 343 175.39 343C190.082 343 203.369 340.3 215.252 334.899C227.134 329.498 236.965 322.045 244.743 312.54C245.548 311.582 246.329 310.612 247.084 309.63C244.531 306.394 242.178 302.936 240.026 299.254C236.694 293.402 234.057 287.137 232.114 280.46H202.288C196.887 292.125 187.273 297.958 173.446 297.958C164.155 297.958 156.269 295.042 149.788 289.209C143.522 283.16 139.957 274.519 139.093 263.286H228.743ZM199.048 209.819C205.529 215.436 208.77 222.997 208.77 232.502H139.417C140.93 222.564 144.819 214.895 151.084 209.495C157.566 204.094 165.452 201.394 174.742 201.394C184.464 201.394 192.566 204.202 199.048 209.819ZM348.268 283.376C340.922 291.153 331.956 295.042 321.369 295.042C310.783 295.042 301.925 291.153 294.795 283.376C287.881 275.599 284.424 264.474 284.424 250C284.424 235.31 287.989 224.185 295.119 216.624C302.249 208.847 311.215 204.958 322.017 204.958C332.604 204.958 341.462 208.847 348.592 216.624C355.938 224.401 359.61 235.526 359.61 250C359.61 264.474 355.829 275.599 348.268 283.376Z" fill="#5E4AE3"/>
</svg>
